<?xml version="1.0" encoding="UTF-8"?>
<svg width="24px" height="24px" viewBox="0 0 24 24" version="1.1" xmlns="http://www.w3.org/2000/svg">
    <defs>
        <linearGradient id="gemini-gradient" x1="0%" y1="0%" x2="100%" y2="100%">
            <stop offset="0%" style="stop-color:#4285F4"/>
            <stop offset="50%" style="stop-color:#9B72CB"/>
            <stop offset="100%" style="stop-color:#D96570"/>
        </linearGradient>
    </defs>
    <path d="M12 2L14.09 8.26L20.18 10.09L14.09 12.26L12 20L9.91 12.26L3.82 10.09L9.91 8.26L12 2Z" fill="url(#gemini-gradient)"/>
    <path d="M19 5L19.95 7.74L22.5 8.5L19.95 9.26L19 12L18.05 9.26L15.5 8.5L18.05 7.74L19 5Z" fill="url(#gemini-gradient)" opacity="0.7"/>
    <path d="M5 14L5.95 16.74L8.5 17.5L5.95 18.26L5 21L4.05 18.26L1.5 17.5L4.05 16.74L5 14Z" fill="url(#gemini-gradient)" opacity="0.7"/>
</svg>
